<?xml version="1.0" encoding="UTF-8" standalone="no"?><!DOCTYPE svg PUBLIC "-//W3C//DTD SVG 1.1//EN" "http://www.w3.org/Graphics/SVG/1.1/DTD/svg11.dtd"><svg width="100%" height="100%" viewBox="0 0 8000 4500" version="1.1" xmlns="http://www.w3.org/2000/svg" xmlns:xlink="http://www.w3.org/1999/xlink" xml:space="preserve" xmlns:serif="http://www.serif.com/" style="fill-rule:evenodd;clip-rule:evenodd;stroke-linejoin:round;stroke-miterlimit:2;"><g><path d="M1994.3,1455.13l-19.629,84.375l-200.391,-0l-18.75,81.152l185.742,-0l-19.336,84.375l-185.742,-0l-43.066,186.328l-112.5,0l100.781,-436.23l312.891,-0Z" style="fill-rule:nonzero;"/><path d="M2200.55,1736.09c-18.75,1.562 -36.328,3.418 -52.735,5.566c-16.406,2.148 -30.371,5.273 -41.894,9.375c-11.914,4.297 -20.996,10.352 -27.246,18.164c-6.25,7.813 -9.375,18.164 -9.375,31.055c-0,11.328 4.15,19.287 12.451,23.877c8.301,4.59 20.361,6.885 36.182,6.885c10.351,-0 21.435,-2.393 33.252,-7.178c11.816,-4.785 22.9,-10.889 33.251,-18.311l16.114,-69.433Zm-27.832,120.41c-6.641,4.297 -14.649,9.472 -24.024,15.527c-9.375,6.055 -18.066,10.84 -26.074,14.356c-10.937,4.492 -21.191,7.91 -30.762,10.254c-9.57,2.343 -22.851,3.515 -39.843,3.515c-27.344,0 -49.659,-7.666 -66.944,-22.998c-17.285,-15.332 -25.927,-35.303 -25.927,-59.912c-0,-25.977 6.152,-47.998 18.457,-66.064c12.304,-18.067 30.566,-32.471 54.785,-43.213c22.656,-10.157 49.658,-17.481 81.006,-21.973c31.347,-4.492 65.283,-7.813 101.806,-9.961c0.196,-1.172 0.586,-3.076 1.172,-5.713c0.586,-2.637 0.879,-5.615 0.879,-8.935c-0,-13.868 -6.445,-23.584 -19.336,-29.151c-12.891,-5.566 -32.129,-8.349 -57.715,-8.349c-17.383,-0 -36.572,2.929 -57.568,8.789c-20.996,5.859 -36.768,10.742 -47.315,14.648l-9.668,0l15.528,-77.93c12.304,-3.125 31.347,-6.64 57.129,-10.546c25.781,-3.907 51.465,-5.86 77.05,-5.86c51.563,0 89.405,6.738 113.526,20.215c24.121,13.477 36.181,34.375 36.181,62.695c0,3.907 -0.341,8.985 -1.025,15.235c-0.684,6.25 -1.611,11.718 -2.783,16.406l-51.563,223.828l-104.882,0l7.91,-34.863Z" style="fill-rule:nonzero;"/><path d="M2754.85,1667.53c-0,29.883 -4.834,58.887 -14.502,87.012c-9.668,28.125 -22.901,52.636 -39.698,73.535c-17.187,21.289 -37.304,38.232 -60.351,50.83c-23.047,12.598 -48.535,18.896 -76.465,18.896c-18.359,0 -34.814,-1.855 -49.365,-5.566c-14.551,-3.711 -27.49,-9.473 -38.819,-17.285l-7.91,16.406l-101.66,0l105.176,-455.859l106.055,-0l-37.207,161.133c18.945,-13.086 36.962,-23.584 54.052,-31.495c17.09,-7.91 36.182,-11.865 57.276,-11.865c33.984,0 59.716,10.108 77.197,30.322c17.48,20.215 26.221,48.194 26.221,83.936Zm-111.621,19.629c-0,-18.36 -4.004,-32.324 -12.012,-41.895c-8.008,-9.57 -21.875,-14.355 -41.602,-14.355c-10.351,-0 -20.508,1.807 -30.468,5.42c-9.961,3.613 -20.508,8.349 -31.641,14.209l-38.086,165.234c6.836,2.735 14.062,4.932 21.68,6.592c7.617,1.66 16.211,2.49 25.781,2.49c32.617,0 58.496,-12.842 77.637,-38.525c19.14,-25.684 28.711,-58.74 28.711,-99.17Z" style="fill-rule:nonzero;"/><path d="M2967.83,1562.36l-76.172,329.004l-106.055,0l76.172,-329.004l106.055,0Zm32.226,-126.855l-18.457,79.98l-111.914,0l18.457,-79.98l111.914,-0Z" style="fill-rule:nonzero;"/><path d="M3225.94,1736.09c-18.75,1.562 -36.328,3.418 -52.734,5.566c-16.406,2.148 -30.371,5.273 -41.895,9.375c-11.914,4.297 -20.996,10.352 -27.246,18.164c-6.25,7.813 -9.375,18.164 -9.375,31.055c0,11.328 4.151,19.287 12.452,23.877c8.3,4.59 20.361,6.885 36.181,6.885c10.352,-0 21.436,-2.393 33.252,-7.178c11.817,-4.785 22.901,-10.889 33.252,-18.311l16.113,-69.433Zm-27.832,120.41c-6.64,4.297 -14.648,9.472 -24.023,15.527c-9.375,6.055 -18.066,10.84 -26.074,14.356c-10.938,4.492 -21.192,7.91 -30.762,10.254c-9.57,2.343 -22.852,3.515 -39.844,3.515c-27.344,0 -49.658,-7.666 -66.943,-22.998c-17.285,-15.332 -25.928,-35.303 -25.928,-59.912c0,-25.977 6.152,-47.998 18.457,-66.064c12.305,-18.067 30.567,-32.471 54.785,-43.213c22.657,-10.157 49.659,-17.481 81.006,-21.973c31.348,-4.492 65.283,-7.813 101.807,-9.961c0.195,-1.172 0.586,-3.076 1.172,-5.713c0.586,-2.637 0.879,-5.615 0.879,-8.935c-0,-13.868 -6.446,-23.584 -19.336,-29.151c-12.891,-5.566 -32.129,-8.349 -57.715,-8.349c-17.383,-0 -36.572,2.929 -57.569,8.789c-20.996,5.859 -36.767,10.742 -47.314,14.648l-9.668,0l15.527,-77.93c12.305,-3.125 31.348,-6.64 57.129,-10.546c25.782,-3.907 51.465,-5.86 77.051,-5.86c51.563,0 89.404,6.738 113.525,20.215c24.122,13.477 36.182,34.375 36.182,62.695c0,3.907 -0.342,8.985 -1.025,15.235c-0.684,6.25 -1.612,11.718 -2.783,16.406l-51.563,223.828l-104.883,0l7.91,-34.863Z" style="fill-rule:nonzero;"/><path d="M3776.72,1636.77c-0,5.86 -0.391,12.207 -1.172,19.043c-0.781,6.836 -2.051,13.965 -3.809,21.387l-49.219,214.16l-106.64,0l37.5,-163.184c2.734,-12.109 4.883,-22.46 6.445,-31.054c1.563,-8.594 2.344,-16.602 2.344,-24.024c-0,-12.695 -3.223,-21.972 -9.668,-27.832c-6.445,-5.859 -18.262,-8.789 -35.449,-8.789c-8.399,0 -18.067,1.807 -29.004,5.42c-10.938,3.613 -23.242,9.033 -36.914,16.26l-53.614,233.203l-106.054,0l75.879,-329.004l106.054,0l-8.496,36.328c21.68,-14.258 41.455,-25.39 59.326,-33.398c17.871,-8.008 37.549,-12.012 59.034,-12.012c29.492,0 52.441,7.129 68.847,21.387c16.407,14.258 24.61,34.961 24.61,62.109Z" style="fill-rule:nonzero;"/></g></svg>